Coordinates
version=1
nRows=12
nColumns=24
inDegrees=yes

Units are S.I. units (second, meters, Newtons, ...)
Angles are in degrees.

endheader
time	pelvis_tilt	pelvis_list	pelvis_rotation	pelvis_tx	pelvis_ty	pelvis_tz	hip_flexion_r	hip_adduction_r	hip_rotation_r	knee_angle_r	ankle_angle_r	subtalar_angle_r	mtp_angle_r	hip_flexion_l	hip_adduction_l	hip_rotation_l	knee_angle_l	ankle_angle_l	subtalar_angle_l	mtp_angle_l	lumbar_extension	lumbar_bending	lumbar_rotation
      6.78000000	      8.26834179	     -0.73661630	      3.32963001	      2.31278819	      0.88419943	     -0.37686319	    -33.06846939	      5.12102598	      1.54217170	     -5.14984909	     21.09768373	      2.99198964	      0.00000000	     11.37861032	      2.26603527	      7.04588921	      2.99821399	     -1.32626876	    -20.88412233	      0.00000000	    -28.23112574	     -0.51652238	     -1.08374021
      6.79000000	      8.31751670	     -0.07669293	      3.90175587	      2.32924021	      0.88343989	     -0.37993418	    -32.95463434	      4.60982124	     -0.36891506	     -7.30653829	     20.17976951	      4.35530207	      0.00000000	     12.01017024	      3.49941746	      6.67841221	      0.36610766	     -2.48035410	    -21.21720282	      0.00000000	    -28.11086402	     -1.20021546	     -1.24487827
      6.80000000	      8.32403492	      0.65484892	      4.56822998	      2.34566082	      0.88310157	     -0.38309946	    -32.56911910	      4.00370341	     -2.56838716	     -9.80161471	     18.87961540	      5.81751325	      0.00000000	     12.78710681	      4.77814845	      6.31465882	     -2.57005676	     -3.26071044	    -21.05936460	      0.00000000	    -27.98758277	     -1.95269294	     -1.46195556
      6.81000000	      8.41064523	      1.49714866	      5.23563866	      2.36192561	      0.88335693	     -0.38621005	    -31.99784846	      3.18377243	     -5.06072179	    -12.71124587	     17.27138443	      7.51741745	      0.00000000	     13.60531433	      6.08741472	      5.44993866	     -5.82086359	     -3.05468248	    -19.79060149	      0.00000000	    -28.03529540	     -2.84209285	     -1.74801035
      6.82000000	      8.44666407	      2.20076985	      5.98297843	      2.37786794	      0.88390936	     -0.38924423	    -31.13503144	      2.45854585	     -7.24103204	    -15.88913631	     14.87476299	      8.52974771	      0.00000000	     14.73785000	      7.12783804	      3.93790529	     -9.57462702	     -1.13094680	    -16.70736090	      0.00000000	    -28.08705406	     -3.56660600	     -2.04339936
      6.83000000	      8.48689092	      2.80857473	      6.62671914	      2.39367224	      0.88468392	     -0.39206759	    -30.00723771	      1.66507783	     -9.14110242	    -19.39640539	     12.02363648	      9.26261477	      0.00000000	     15.85354915	      7.91316203	      2.44433158	    -13.39334909	      1.25466972	    -13.66913977	      0.00000000	    -28.13821621	     -4.23153870	     -2.27752831
      6.84000000	      8.56664095	      3.15427843	      7.21380830	      2.40920168	      0.88559312	     -0.39481386	    -28.65331712	      1.02176721	    -10.58213066	    -23.12321571	      8.68745132	      9.42667399	      0.00000000	     16.81490661	      8.33099666	      1.31072519	    -17.06372697	      3.84248168	    -10.94014163	      0.00000000	    -28.20765526	     -4.58379714	     -2.35421033
      6.85000000	      8.81318259	      3.43883815	      7.60965345	      2.42460391	      0.88681214	     -0.39738281	    -27.28046875	      0.32750369	    -11.51824107	    -26.97363382	      5.16190760	      9.18688073	      0.00000000	     17.26432463	      8.59003199	      0.43763256	    -20.21562265	      6.41673815	     -8.78485654	      0.00000000	    -28.42254327	     -4.87212079	     -2.42881368
      6.86000000	      9.05191542	      3.62759371	      7.83426966	      2.43979082	      0.88811158	     -0.39991044	    -25.67190310	     -0.41986366	    -12.12254109	    -30.98652905	      1.97712213	      8.88143299	      0.00000000	     17.34233488	      8.72399661	     -0.19684280	    -22.71970300	      8.72601334	     -7.24072018	      0.00000000	    -28.57183696	     -5.04531459	     -2.39592383
      6.87000000	      9.23842884	      3.79691658	      7.86752650	      2.45478133	      0.88948000	     -0.40235866	    -23.83514163	     -1.25747280	    -12.34826078	    -35.07593007	     -0.50875637	      8.54142201	      0.00000000	     17.04946386	      8.81960241	     -0.74895477	    -24.48713878	     10.82049961	     -6.13341889	      0.00000000	    -28.60907948	     -5.20690442	     -2.34760575
      6.88000000	      9.41239796	      3.98925857	      7.69665878	      2.46954214	      0.89101611	     -0.40466816	    -21.85356551	     -2.20202584	    -12.26799518	    -39.15952083	     -2.02262605	      8.30591914	      0.00000000	     16.36952563	      8.89185099	     -1.41981459	    -25.54545413	     12.69252679	     -5.17339200	      0.00000000	    -28.59918279	     -5.40722146	     -2.22562194
      6.89000000	      9.51421581	      4.22508807	      7.35314072	      2.48411834	      0.89269249	     -0.40682248	    -19.71046246	     -3.21105740	    -11.87462038	    -43.13484192	     -2.49136304	      8.10316336	      0.00000000	     15.39848706	      9.00085979	     -2.15267410	    -25.94360065	     14.35043270	     -4.36948551	      0.00000000	    -28.47512108	     -5.68074804	     -2.16238360
